# xmcd CD database file
#
# Track frame offsets:
#	150
#	29037
#	45624
#	67918
#	82530
#	99752
#	118590
#	130973
#	147404
#	163642
#	179770
#	202943
#	216586
#	222137
#	244623
#
# Disc length: 3513 seconds
#
# Revision: 1
# Processed by: cddbd v1.5.2PL0 Copyright (c) Steve Scherf et al.
# Submitted via: CDex 1.51
#
DISCID=d40db70f
DTITLE=Hugh Laurie - Let Them Talk
DYEAR=2011
DGENRE=Blues
TTITLE0=St. James Infirmary
TTITLE1=You Don't Know My Mind
TTITLE2=Six Cold Feet
TTITLE3=Buddy Bolden's Blues
TTITLE4=Batttle of Jericho
TTITLE5=After You've Gone
TTITLE6=Swanee River
TTITLE7=The Whale Has Swallowed Me
TTITLE8=John Henry
TTITLE9=Police Dog Blues
TTITLE10=Tipitina
TTITLE11=Winin' Boy Blues
TTITLE12=They're Red Hot
TTITLE13=Baby, Please Make a Change
TTITLE14=Let Them Talk
EXTD=YEAR: 2011
EXTT0=
EXTT1=
EXTT2=
EXTT3=
EXTT4=
EXTT5=
EXTT6=
EXTT7=
EXTT8=
EXTT9=
EXTT10=
EXTT11=
EXTT12=
EXTT13=
EXTT14=
PLAYORDER=
